<svg xmlns="http://www.w3.org/2000/svg" version="1.1" xmlns:xlink="http://www.w3.org/1999/xlink" xmlns:svgjs="http://svgjs.dev/svgjs" width="1000" height="176" viewBox="0 0 1000 176"><g transform="matrix(1,0,0,1,0.1066666666666265,-0.5384012858072964)"><svg viewBox="0 0 375 66" data-background-color="#ffffff" preserveAspectRatio="xMidYMid meet" height="176" width="1000" xmlns="http://www.w3.org/2000/svg" xmlns:xlink="http://www.w3.org/1999/xlink"><defs></defs><g id="tight-bounds" transform="matrix(1,0,0,1,-0.03976036071776434,0.20190048217773438)"><svg viewBox="0 0 375.07952880859375 65.59619903564453" height="65.59619903564453" width="375.07952880859375"><g><svg></svg></g><g><svg viewBox="0 0 375.07952880859375 65.59619903564453" height="65.59619903564453" width="375.07952880859375"><g transform="matrix(1,0,0,1,-10.220239639282227,-91.94591522216797)"><path d="M10.22 155.254v-63.308h375.08v63.308l-218.837 0 0-2.041h216.796v-59.226h-370.998v59.226h29.129l0 2.041z" fill="#6f605b" data-fill-palette-color="tertiary"></path><path d="M50.613 157.494c-0.172 0-0.297-0.022-0.374-0.065-0.079-0.043-0.119-0.112-0.119-0.204v0-7.428h-2.367c-0.087 0-0.149-0.029-0.187-0.088-0.036-0.06-0.054-0.153-0.054-0.278v0-0.201c0-0.129 0.018-0.222 0.054-0.28 0.038-0.057 0.1-0.085 0.187-0.086v0h5.772c0.089 0 0.151 0.028 0.187 0.086 0.038 0.059 0.057 0.152 0.057 0.28v0 0.201c0 0.125-0.019 0.217-0.057 0.278-0.036 0.059-0.098 0.088-0.187 0.088v0h-2.316v7.428c0 0.18-0.166 0.269-0.499 0.269v0zM57.236 157.542c-0.928 0-1.635-0.278-2.121-0.833-0.488-0.556-0.731-1.364-0.731-2.424v0c0-1.062 0.247-1.88 0.74-2.455 0.495-0.575 1.199-0.862 2.112-0.862v0c0.905 0 1.597 0.285 2.075 0.856 0.48 0.569 0.72 1.389 0.72 2.461v0c0 1.064-0.236 1.873-0.709 2.426-0.472 0.554-1.168 0.831-2.086 0.831zM57.202 156.658c0.599 0 1.042-0.195 1.329-0.584 0.285-0.391 0.428-0.995 0.428-1.812v0c0-0.82-0.143-1.427-0.428-1.82-0.287-0.391-0.73-0.587-1.329-0.587v0c-0.595 0-1.034 0.195-1.316 0.584-0.282 0.389-0.422 0.997-0.422 1.823v0c0 0.822 0.14 1.427 0.419 1.814 0.278 0.387 0.717 0.581 1.319 0.582zM64.241 157.542c-0.928 0-1.636-0.278-2.124-0.833-0.486-0.556-0.729-1.364-0.728-2.424v0c0-1.062 0.247-1.88 0.74-2.455 0.493-0.575 1.197-0.862 2.112-0.862v0c0.903 0 1.595 0.285 2.075 0.856 0.48 0.569 0.72 1.389 0.72 2.461v0c0 1.064-0.236 1.873-0.709 2.426-0.472 0.554-1.168 0.831-2.086 0.831zM64.207 156.658c0.599 0 1.041-0.195 1.326-0.584 0.287-0.391 0.431-0.995 0.431-1.812v0c0-0.82-0.144-1.427-0.431-1.82-0.285-0.391-0.728-0.587-1.326-0.587v0c-0.595 0-1.034 0.195-1.316 0.584-0.282 0.389-0.422 0.997-0.422 1.823v0c0 0.822 0.139 1.427 0.417 1.814 0.28 0.387 0.72 0.581 1.321 0.582zM75.169 157.542c-1.238 0-2.179-0.356-2.823-1.069-0.646-0.713-0.97-1.791-0.97-3.234v0c0-2.971 1.327-4.456 3.98-4.457v0c0.387 0 0.764 0.04 1.129 0.119 0.363 0.081 0.658 0.182 0.884 0.304 0.227 0.119 0.34 0.234 0.34 0.346v0c0 0.068-0.025 0.16-0.073 0.274-0.049 0.115-0.106 0.217-0.171 0.307-0.064 0.087-0.122 0.13-0.172 0.13v0c-0.023 0-0.087-0.03-0.193-0.091v0c-0.24-0.129-0.491-0.236-0.754-0.323-0.263-0.089-0.584-0.133-0.964-0.133v0c-1.041 0-1.784 0.287-2.228 0.862-0.442 0.575-0.663 1.425-0.664 2.551v0c0 1.06 0.206 1.906 0.618 2.537 0.414 0.629 1.128 0.944 2.143 0.944v0c0.31 0 0.609-0.015 0.896-0.045 0.289-0.03 0.519-0.068 0.689-0.113v0-2.487h-1.44c-0.087 0-0.15-0.028-0.19-0.085-0.04-0.059-0.06-0.152-0.059-0.28v0-0.202c0-0.129 0.02-0.222 0.059-0.28 0.04-0.057 0.103-0.085 0.19-0.085v0h2.155c0.129 0 0.223 0.028 0.283 0.085 0.059 0.059 0.088 0.152 0.088 0.28v0 3.261c0 0.318-0.258 0.544-0.774 0.68-0.516 0.136-1.176 0.204-1.979 0.204zM82.469 157.542c-0.926 0-1.633-0.278-2.12-0.833-0.486-0.556-0.729-1.364-0.729-2.424v0c0-1.062 0.247-1.88 0.74-2.455 0.493-0.575 1.196-0.862 2.109-0.862v0c0.905 0 1.598 0.285 2.078 0.856 0.48 0.569 0.72 1.389 0.72 2.461v0c0 1.064-0.236 1.873-0.709 2.426-0.474 0.554-1.171 0.831-2.089 0.831zM82.435 156.658c0.601 0 1.044-0.195 1.33-0.584 0.285-0.391 0.428-0.995 0.428-1.812v0c0-0.82-0.143-1.427-0.428-1.82-0.285-0.391-0.729-0.587-1.33-0.587v0c-0.595 0-1.034 0.195-1.315 0.584-0.282 0.389-0.422 0.997-0.423 1.823v0c0 0.822 0.14 1.427 0.42 1.814 0.28 0.387 0.719 0.581 1.318 0.582zM89.474 157.542c-0.928 0-1.635-0.278-2.12-0.833-0.488-0.556-0.731-1.364-0.732-2.424v0c0-1.062 0.248-1.88 0.743-2.455 0.493-0.575 1.196-0.862 2.109-0.862v0c0.905 0 1.598 0.285 2.078 0.856 0.478 0.569 0.717 1.389 0.717 2.461v0c0 1.064-0.236 1.873-0.708 2.426-0.472 0.554-1.168 0.831-2.087 0.831zM89.44 156.658c0.599 0 1.042-0.195 1.33-0.584 0.285-0.391 0.428-0.995 0.428-1.812v0c0-0.82-0.143-1.427-0.428-1.82-0.287-0.391-0.73-0.587-1.33-0.587v0c-0.595 0-1.034 0.195-1.315 0.584-0.282 0.389-0.422 0.997-0.423 1.823v0c0 0.822 0.14 1.427 0.42 1.814 0.28 0.387 0.719 0.581 1.318 0.582zM95.974 157.542c-0.48 0-0.901-0.139-1.261-0.417-0.359-0.28-0.637-0.669-0.834-1.168-0.197-0.497-0.295-1.062-0.294-1.695v0c0-0.695 0.105-1.292 0.314-1.789 0.212-0.495 0.506-0.87 0.885-1.125 0.378-0.253 0.814-0.38 1.307-0.38v0c0.355 0 0.67 0.053 0.944 0.159 0.276 0.106 0.547 0.261 0.813 0.465v0-3.102c0-0.18 0.162-0.269 0.485-0.269v0h0.057c0.327 0 0.49 0.09 0.49 0.269v0 7.164c0 0.535 0.026 0.921 0.077 1.159 0.051 0.238 0.077 0.369 0.076 0.392v0c0 0.1-0.077 0.173-0.232 0.218-0.155 0.043-0.3 0.065-0.434 0.065v0c-0.091 0-0.164-0.044-0.221-0.133-0.055-0.087-0.093-0.175-0.113-0.264-0.021-0.091-0.054-0.247-0.1-0.467v0c-0.588 0.612-1.241 0.919-1.959 0.918zM96.187 156.649c0.272 0 0.555-0.074 0.848-0.221 0.293-0.147 0.564-0.357 0.813-0.629v0-3.371c-0.442-0.369-0.947-0.553-1.514-0.553v0c-0.55 0.013-0.965 0.214-1.244 0.601-0.278 0.387-0.417 0.951-0.417 1.69v0c0 0.794 0.13 1.406 0.391 1.837 0.261 0.431 0.635 0.646 1.123 0.646zM106.208 157.494c-0.17 0-0.294-0.022-0.371-0.065-0.079-0.043-0.119-0.112-0.119-0.204v0-7.428h-2.367c-0.087 0-0.149-0.029-0.187-0.088-0.036-0.06-0.054-0.153-0.054-0.278v0-0.201c0-0.129 0.018-0.222 0.054-0.28 0.038-0.057 0.1-0.085 0.187-0.086v0h5.772c0.089 0 0.151 0.028 0.187 0.086 0.038 0.059 0.057 0.152 0.056 0.28v0 0.201c0 0.125-0.019 0.217-0.056 0.278-0.036 0.059-0.098 0.088-0.187 0.088v0h-2.319v7.428c0 0.18-0.165 0.269-0.496 0.269v0zM112.834 157.542c-0.928 0-1.635-0.278-2.121-0.833-0.488-0.556-0.731-1.364-0.731-2.424v0c0-1.062 0.247-1.88 0.74-2.455 0.493-0.575 1.197-0.862 2.112-0.862v0c0.903 0 1.595 0.285 2.075 0.856 0.48 0.569 0.72 1.389 0.72 2.461v0c0 1.064-0.236 1.873-0.709 2.426-0.472 0.554-1.168 0.831-2.086 0.831zM112.8 156.658c0.599 0 1.041-0.195 1.326-0.584 0.287-0.391 0.431-0.995 0.431-1.812v0c0-0.82-0.144-1.427-0.431-1.82-0.285-0.391-0.728-0.587-1.326-0.587v0c-0.595 0-1.034 0.195-1.316 0.584-0.282 0.389-0.422 0.997-0.422 1.823v0c0 0.822 0.14 1.427 0.419 1.814 0.278 0.387 0.717 0.581 1.319 0.582zM120.828 157.474c-0.13 0-0.225-0.03-0.284-0.091-0.06-0.059-0.091-0.15-0.09-0.275v0-7.878c0-0.129 0.03-0.222 0.09-0.28 0.059-0.057 0.153-0.085 0.284-0.086v0h2.2c0.599 0 1.105 0.09 1.516 0.27 0.41 0.18 0.719 0.434 0.928 0.762 0.208 0.327 0.312 0.707 0.311 1.14v0c0 0.268-0.062 0.535-0.187 0.799-0.125 0.266-0.291 0.495-0.499 0.686-0.208 0.191-0.429 0.319-0.663 0.386v0 0.048c0-0.032 0.159 0.028 0.476 0.182 0.319 0.155 0.607 0.384 0.862 0.686 0.257 0.302 0.386 0.694 0.386 1.173v0c0 1.652-1.071 2.478-3.212 2.478v0zM121.54 152.572h1.434c0.321 0 0.611-0.063 0.87-0.189 0.259-0.127 0.461-0.3 0.607-0.519 0.146-0.219 0.218-0.462 0.218-0.729v0c0-0.461-0.139-0.799-0.416-1.015-0.276-0.215-0.719-0.323-1.33-0.323v0h-1.383zM121.54 156.539h1.8c0.541 0 0.958-0.142 1.253-0.426 0.295-0.283 0.442-0.672 0.442-1.165v0c0-0.457-0.162-0.812-0.485-1.063-0.323-0.251-0.798-0.377-1.426-0.377v0h-1.584zM130.254 157.542c-1.021 0-1.778-0.266-2.274-0.799-0.497-0.533-0.746-1.348-0.745-2.447v0c0-1.089 0.243-1.915 0.728-2.48 0.484-0.565 1.196-0.848 2.138-0.848v0c0.841 0 1.474 0.272 1.899 0.816 0.427 0.544 0.641 1.343 0.641 2.396v0c0 0.045-0.024 0.109-0.071 0.19-0.049 0.081-0.107 0.153-0.173 0.215-0.068 0.062-0.125 0.094-0.17 0.094v0h-3.884c0.051 0.686 0.228 1.188 0.53 1.505 0.302 0.316 0.758 0.473 1.367 0.474v0c0.342 0 0.636-0.042 0.881-0.125 0.248-0.083 0.487-0.184 0.718-0.303v0c0.023-0.009 0.058-0.026 0.105-0.052 0.045-0.023 0.077-0.034 0.096-0.034v0c0.051 0 0.11 0.041 0.176 0.122 0.066 0.081 0.124 0.171 0.173 0.27 0.049 0.1 0.074 0.173 0.073 0.218v0c0 0.102-0.102 0.215-0.306 0.34-0.202 0.125-0.473 0.231-0.813 0.318-0.338 0.087-0.701 0.13-1.089 0.13zM128.343 153.792h3.198c0-1.291-0.491-1.936-1.474-1.937v0c-1.056 0-1.631 0.645-1.724 1.937zM139.501 157.494c-0.172 0-0.297-0.022-0.374-0.065-0.079-0.043-0.119-0.112-0.119-0.204v0-7.428h-2.367c-0.087 0-0.149-0.029-0.187-0.088-0.036-0.06-0.054-0.153-0.054-0.278v0-0.201c0-0.129 0.018-0.222 0.054-0.28 0.038-0.057 0.1-0.085 0.187-0.086v0h5.772c0.089 0 0.151 0.028 0.187 0.086 0.038 0.059 0.057 0.152 0.057 0.28v0 0.201c0 0.125-0.019 0.217-0.057 0.278-0.036 0.059-0.098 0.088-0.187 0.088v0h-2.316v7.428c0 0.18-0.166 0.269-0.499 0.269v0zM144.511 157.494c-0.176 0-0.302-0.022-0.38-0.065-0.079-0.043-0.119-0.112-0.119-0.204v0-4.318c0-0.537-0.025-0.923-0.074-1.159-0.051-0.238-0.077-0.369-0.077-0.392v0c0-0.102 0.077-0.175 0.23-0.218 0.155-0.043 0.302-0.065 0.442-0.065v0c0.11 0 0.192 0.059 0.247 0.176 0.057 0.117 0.106 0.283 0.147 0.496v0l0.034 0.144c0.438-0.614 0.914-0.921 1.426-0.921v0c0.234 0 0.412 0.043 0.533 0.128 0.119 0.085 0.179 0.199 0.179 0.343v0c0 0.138-0.024 0.284-0.071 0.439-0.049 0.155-0.106 0.232-0.17 0.232v0c-0.032 0-0.09-0.014-0.173-0.042v0c-0.074-0.032-0.147-0.056-0.221-0.071-0.074-0.017-0.168-0.026-0.284-0.025v0c-0.191 0-0.37 0.056-0.538 0.167-0.168 0.11-0.31 0.232-0.425 0.365-0.115 0.134-0.173 0.208-0.173 0.222v0 4.499c0 0.093-0.039 0.161-0.117 0.204-0.079 0.043-0.202 0.065-0.368 0.065v0zM150.331 157.542c-0.627 0-1.119-0.176-1.474-0.527-0.355-0.353-0.533-0.842-0.533-1.466v0-4.264c0-0.18 0.166-0.269 0.499-0.269v0h0.048c0.329 0 0.493 0.09 0.493 0.269v0 4.168c0 0.378 0.11 0.672 0.329 0.881 0.219 0.21 0.527 0.315 0.924 0.315v0c0.276 0 0.552-0.077 0.828-0.23 0.278-0.155 0.518-0.367 0.72-0.635v0-4.499c0-0.18 0.164-0.269 0.493-0.269v0h0.048c0.333 0 0.499 0.09 0.499 0.269v0 4.369c0 0.535 0.023 0.921 0.068 1.159 0.045 0.238 0.068 0.369 0.068 0.392v0c0 0.1-0.076 0.173-0.226 0.218-0.153 0.043-0.296 0.065-0.429 0.065v0c-0.117 0-0.203-0.066-0.258-0.198-0.055-0.13-0.095-0.266-0.121-0.406-0.025-0.138-0.042-0.225-0.051-0.26v0c-0.259 0.291-0.558 0.517-0.896 0.677-0.338 0.161-0.681 0.241-1.029 0.241zM157.951 157.542c-1.019 0-1.777-0.266-2.274-0.799-0.495-0.533-0.743-1.348-0.742-2.447v0c0-1.089 0.242-1.915 0.725-2.48 0.486-0.565 1.199-0.848 2.141-0.848v0c0.839 0 1.472 0.272 1.899 0.816 0.427 0.544 0.641 1.343 0.641 2.396v0c0 0.045-0.025 0.109-0.074 0.19-0.049 0.081-0.107 0.153-0.173 0.215-0.066 0.062-0.123 0.094-0.17 0.094v0h-3.881c0.049 0.686 0.225 1.188 0.527 1.505 0.302 0.316 0.759 0.473 1.37 0.474v0c0.34 0 0.634-0.042 0.881-0.125 0.246-0.083 0.484-0.184 0.715-0.303v0c0.025-0.009 0.06-0.026 0.104-0.052 0.047-0.023 0.079-0.034 0.097-0.034v0c0.051 0 0.111 0.041 0.178 0.122 0.066 0.081 0.124 0.171 0.173 0.27 0.047 0.1 0.071 0.173 0.071 0.218v0c0 0.102-0.101 0.215-0.303 0.34-0.204 0.125-0.475 0.231-0.814 0.318-0.34 0.087-0.704 0.13-1.091 0.13zM156.043 153.792h3.198c0-1.291-0.492-1.936-1.477-1.937v0c-1.056 0-1.63 0.645-1.721 1.937z" fill="#f36527" data-fill-palette-color="secondary"></path></g><g transform="matrix(1,0,0,1,29.331764404296877,21.48407769675502)"><svg viewBox="0 0 316.416 22.628043642134493" height="22.628043642134493" width="316.416"><g><svg viewBox="0 0 316.416 22.628043642134493" height="22.628043642134493" width="316.416"><g><svg viewBox="0 0 316.416 22.628043642134493" height="22.628043642134493" width="316.416"><g><svg viewBox="0 0 316.416 22.628043642134493" height="22.628043642134493" width="316.416"><g><svg viewBox="0 0 316.416 22.628043642134493" height="22.628043642134493" width="316.416"><g><svg viewBox="0 0 316.416 22.628043642134493" height="22.628043642134493" width="316.416"><g transform="matrix(1,0,0,1,0,0)"><svg width="316.416" viewBox="1.350000023841858 -35.75 503.9700012207031 36.04999923706055" height="22.628043642134493" data-palette-color="#6f605b"><g class="undefined-text-0" data-fill-palette-color="primary" id="text-0"><path d="M18.95 0.3L18.95 0.3Q14.95 0.3 11.73-1.23 8.5-2.75 6.18-5.33 3.85-7.9 2.6-11.13 1.35-14.35 1.35-17.8L1.35-17.8Q1.35-21.35 2.68-24.55 4-27.75 6.38-30.28 8.75-32.8 12-34.25 15.25-35.7 19.1-35.7L19.1-35.7Q23.05-35.7 26.28-34.18 29.5-32.65 31.83-30.05 34.15-27.45 35.4-24.23 36.65-21 36.65-17.65L36.65-17.65Q36.65-14.1 35.35-10.9 34.05-7.7 31.65-5.18 29.25-2.65 26.03-1.18 22.8 0.3 18.95 0.3ZM9.7-17.7L9.7-17.7Q9.7-15.65 10.3-13.73 10.9-11.8 12.08-10.3 13.25-8.8 15-7.9 16.75-7 19-7L19-7Q21.35-7 23.1-7.93 24.85-8.85 26-10.4 27.15-11.95 27.73-13.88 28.3-15.8 28.3-17.8L28.3-17.8Q28.3-19.85 27.7-21.75 27.1-23.65 25.9-25.18 24.7-26.7 22.95-27.55 21.2-28.4 19-28.4L19-28.4Q16.65-28.4 14.93-27.5 13.2-26.6 12.03-25.08 10.85-23.55 10.28-21.63 9.7-19.7 9.7-17.7ZM37.85-35.5L46.55-35.5 54.9-9.6 63.15-35.5 71.8-35.5 58.9 0 50.85 0 37.85-35.5ZM83.3-7.2L100.05-7.2 100.05 0 75.1 0 75.1-35.5 99.6-35.5 99.6-28.3 83.3-28.3 83.3-21.4 97.3-21.4 97.3-14.75 83.3-14.75 83.3-7.2ZM113.24 0L105.04 0 105.04-35.5 121.04-35.5Q123.54-35.5 125.67-34.48 127.79-33.45 129.34-31.73 130.89-30 131.77-27.85 132.64-25.7 132.64-23.5L132.64-23.5Q132.64-21.3 131.94-19.33 131.24-17.35 129.94-15.78 128.64-14.2 126.84-13.2L126.84-13.2 134.64 0 125.59 0 118.79-11.45 113.24-11.45 113.24 0ZM113.24-28.3L113.24-18.6 120.74-18.6Q121.74-18.6 122.52-19.23 123.29-19.85 123.79-20.95 124.29-22.05 124.29-23.5L124.29-23.5Q124.29-24.95 123.72-26.03 123.14-27.1 122.29-27.7 121.44-28.3 120.49-28.3L120.49-28.3 113.24-28.3ZM146.74 0L138.54 0 138.54-35.5 153.69-35.5Q156.24-35.5 158.37-34.48 160.49-33.45 162.04-31.73 163.59-30 164.44-27.85 165.29-25.7 165.29-23.45L165.29-23.45Q165.29-20.4 163.87-17.65 162.44-14.9 159.92-13.18 157.39-11.45 153.94-11.45L153.94-11.45 146.74-11.45 146.74 0ZM146.74-28.3L146.74-18.6 153.44-18.6Q154.39-18.6 155.19-19.15 155.99-19.7 156.49-20.8 156.99-21.9 156.99-23.5L156.99-23.5Q156.99-25.15 156.42-26.23 155.84-27.3 154.97-27.8 154.09-28.3 153.14-28.3L153.14-28.3 146.74-28.3ZM177.89-7.2L194.64-7.2 194.64 0 169.69 0 169.69-35.5 194.19-35.5 194.19-28.3 177.89-28.3 177.89-21.4 191.89-21.4 191.89-14.75 177.89-14.75 177.89-7.2ZM207.84 0L199.64 0 199.64-35.5 215.64-35.5Q218.14-35.5 220.26-34.48 222.39-33.45 223.94-31.73 225.49-30 226.36-27.85 227.24-25.7 227.24-23.5L227.24-23.5Q227.24-21.3 226.54-19.33 225.84-17.35 224.54-15.78 223.24-14.2 221.44-13.2L221.44-13.2 229.24 0 220.19 0 213.39-11.45 207.84-11.45 207.84 0ZM207.84-28.3L207.84-18.6 215.34-18.6Q216.34-18.6 217.11-19.23 217.89-19.85 218.39-20.95 218.89-22.05 218.89-23.5L218.89-23.5Q218.89-24.95 218.31-26.03 217.74-27.1 216.89-27.7 216.04-28.3 215.09-28.3L215.09-28.3 207.84-28.3ZM241.33 0L233.13 0 233.13-35.5 257.23-35.5 257.23-28.3 241.33-28.3 241.33-20.65 254.43-20.65 254.43-14 241.33-14 241.33 0ZM277.13 0.3L277.13 0.3Q273.13 0.3 269.91-1.23 266.68-2.75 264.36-5.33 262.03-7.9 260.78-11.13 259.53-14.35 259.53-17.8L259.53-17.8Q259.53-21.35 260.86-24.55 262.18-27.75 264.56-30.28 266.93-32.8 270.18-34.25 273.43-35.7 277.28-35.7L277.28-35.7Q281.23-35.7 284.45-34.18 287.68-32.65 290-30.05 292.33-27.45 293.58-24.23 294.83-21 294.83-17.65L294.83-17.65Q294.83-14.1 293.53-10.9 292.23-7.7 289.83-5.18 287.43-2.65 284.2-1.18 280.98 0.3 277.13 0.3ZM267.88-17.7L267.88-17.7Q267.88-15.65 268.48-13.73 269.08-11.8 270.25-10.3 271.43-8.8 273.18-7.9 274.93-7 277.18-7L277.18-7Q279.53-7 281.28-7.93 283.03-8.85 284.18-10.4 285.33-11.95 285.91-13.88 286.48-15.8 286.48-17.8L286.48-17.8Q286.48-19.85 285.88-21.75 285.28-23.65 284.08-25.18 282.88-26.7 281.13-27.55 279.38-28.4 277.18-28.4L277.18-28.4Q274.83-28.4 273.11-27.5 271.38-26.6 270.2-25.08 269.03-23.55 268.45-21.63 267.88-19.7 267.88-17.7ZM307.78 0L299.58 0 299.58-35.5 315.58-35.5Q318.08-35.5 320.2-34.48 322.33-33.45 323.88-31.73 325.43-30 326.3-27.85 327.18-25.7 327.18-23.5L327.18-23.5Q327.18-21.3 326.48-19.33 325.78-17.35 324.48-15.78 323.18-14.2 321.38-13.2L321.38-13.2 329.18 0 320.13 0 313.33-11.45 307.78-11.45 307.78 0ZM307.78-28.3L307.78-18.6 315.28-18.6Q316.28-18.6 317.05-19.23 317.83-19.85 318.33-20.95 318.83-22.05 318.83-23.5L318.83-23.5Q318.83-24.95 318.25-26.03 317.68-27.1 316.83-27.7 315.98-28.3 315.03-28.3L315.03-28.3 307.78-28.3ZM369.28 0L361.07 0 361.07-21.15 353.43-5.75 348.93-5.75 341.28-21.15 341.28 0 333.07 0 333.07-35.5 341.98-35.5 351.18-16.95 360.43-35.5 369.28-35.5 369.28 0ZM384.27 0L376.07 0 376.07-35.5 384.27-35.5 384.27 0ZM415.52 0L399.27-20.3 399.27 0 391.07 0 391.07-35.5 397.57-35.5 414.02-14.6 414.02-35.5 422.22-35.5 422.22 0 415.52 0ZM444.07 0.25L444.07 0.25Q440.57 0.25 437.47-1.07 434.37-2.4 432.02-4.83 429.67-7.25 428.34-10.58 427.02-13.9 427.02-18L427.02-18Q427.02-21.7 428.37-24.9 429.72-28.1 432.12-30.55 434.52-33 437.74-34.38 440.97-35.75 444.72-35.75L444.72-35.75Q449.62-35.75 453.37-33.65 457.12-31.55 458.92-28L458.92-28 452.82-23.4Q451.62-25.75 449.34-27.1 447.07-28.45 444.42-28.45L444.42-28.45Q442.42-28.45 440.74-27.63 439.07-26.8 437.84-25.33 436.62-23.85 435.97-21.9 435.32-19.95 435.32-17.7L435.32-17.7Q435.32-15.4 436.02-13.45 436.72-11.5 437.97-10.08 439.22-8.65 440.94-7.85 442.67-7.05 444.77-7.05L444.77-7.05Q447.32-7.05 449.64-8.33 451.97-9.6 453.92-12.1L453.92-12.1 453.92-4Q449.67 0.25 444.07 0.25ZM453.42 0L453.42-12.6 446.52-12.6 446.52-18.55 460.22-18.55 460.22 0 453.42 0Z" fill="#6f605b" data-fill-palette-color="primary"></path><path d="M460.32 0L472.57-35.5 481.42-35.5 493.62 0 485.22 0 482.47-7.95 471.42-7.95 468.72 0 460.32 0ZM472.72-13.6L481.12-13.6 476.97-27.25 472.72-13.6ZM505.32 0L497.12 0 497.12-35.5 505.32-35.5 505.32 0Z" fill="#f36527" data-fill-palette-color="secondary"></path></g></svg></g></svg></g></svg></g></svg></g></svg></g></svg></g></svg></g></svg></g></svg><rect width="375.07952880859375" height="65.59619903564453" fill="none" stroke="none" visibility="hidden"></rect></g></svg></g></svg>